<svg t="1700246211804" class="icon" viewBox="0 0 1024 1024" version="1.1"
    xmlns="http://www.w3.org/2000/svg" p-id="7152" xmlns:xlink="http://www.w3.org/1999/xlink"
    width="100%" height="100%">
    <path
        d="M885.979429 0H138.020571A138.093714 138.093714 0 0 0 0 138.020571v747.958858C0 962.121143 61.878857 1024 138.020571 1024h747.958858A138.093714 138.093714 0 0 0 1024 885.979429V138.020571A138.093714 138.093714 0 0 0 885.979429 0z m-653.897143 226.084571h560.054857v65.536H232.009143v-65.536z m617.398857 284.306286H501.174857l-161.645714 237.933714c18.432 5.924571 40.228571 11.922286 65.097143 16.164572 100.425143 17.627429 205.897143 5.778286 314.002285-35.620572l-72.265142-130.852571 64.292571-35.84 129.243429 234.276571-64.365715 35.84-22.893714-41.545142c-97.718857 38.473143-184.758857 51.785143-258.486857 51.785142-160.548571 0-257.828571-63.268571-263.753143-67.145142l39.350857-57.344L410.038857 510.537143h-235.52v-65.536h674.962286v65.389714z"
        fill="#E33D3D" p-id="7153"></path>
</svg>